<svg width="24" height="24" viewBox="0 0 24 24" fill="none" xmlns="http://www.w3.org/2000/svg">
<path d="M0 12C0 5.37258 5.37258 0 12 0C18.6274 0 24 5.37258 24 12C24 18.6274 18.6274 24 12 24C5.37258 24 0 18.6274 0 12Z" fill="#E63C39"/>
<path d="M11.9974 15.7999C11.6791 15.7999 11.3739 15.9264 11.1489 16.1514C10.9238 16.3764 10.7974 16.6817 10.7974 16.9999C10.7974 17.3182 10.9238 17.6234 11.1489 17.8485C11.3739 18.0735 11.6791 18.1999 11.9974 18.1999C12.3157 18.1999 12.6209 18.0735 12.8459 17.8485C13.071 17.6234 13.1974 17.3182 13.1974 16.9999C13.1974 16.6817 13.071 16.3764 12.8459 16.1514C12.6209 15.9264 12.3157 15.7999 11.9974 15.7999Z" fill="white"/>
<path d="M10.4987 7.08399C10.4496 6.50064 10.9098 6 11.4952 6H12.4995C13.0849 6 13.5452 6.50064 13.496 7.08399L13.0813 12.0035C13.0338 12.5669 12.5627 13 11.9973 13C11.432 13 10.9608 12.5669 10.9134 12.0035L10.4987 7.08399Z" fill="white"/>
</svg>
