<svg width="24" height="24" viewBox="0 0 24 24" fill="none" xmlns="http://www.w3.org/2000/svg">
<path d="M9.00497 12C9.00497 13.6569 10.3481 15 12.005 15C13.6618 15 15.005 13.6569 15.005 12C15.005 11.6925 14.9587 11.3959 14.8728 11.1166C14.6376 11.6375 14.1136 12 13.505 12C12.6765 12 12.005 11.3284 12.005 10.5C12.005 9.89135 12.3675 9.36736 12.8884 9.13218C12.6091 9.04625 12.3124 9 12.005 9C10.3481 9 9.00497 10.3431 9.00497 12Z" fill="#FF14A1"/>
<path fill-rule="evenodd" clip-rule="evenodd" d="M12.005 5C18.1363 5 20.8879 9.21507 21.7398 10.9048C22.0893 11.598 22.0893 12.402 21.7398 13.0952C20.8879 14.7849 18.1363 19 12.005 19C5.87766 19 3.11931 14.7903 2.26326 13.0993C1.91116 12.4038 1.91116 11.5962 2.26326 10.9007C3.11931 9.20969 5.87766 5 12.005 5ZM19.9539 11.8051C19.2432 10.3954 17.0228 7 12.005 7C6.98931 7 4.7623 10.3923 4.04765 11.804C3.98303 11.9317 3.98303 12.0683 4.04765 12.196C4.7623 13.6077 6.98931 17 12.005 17C17.0228 17 19.2432 13.6046 19.9539 12.1949C20.018 12.0679 20.018 11.9321 19.9539 11.8051Z" fill="#FF14A1"/>
</svg>
