<svg width="20" height="20" viewBox="0 0 20 20" fill="none" xmlns="http://www.w3.org/2000/svg">
<path d="M0 10C0 4.47715 4.47715 0 10 0C15.5228 0 20 4.47715 20 10C20 15.5228 15.5228 20 10 20C4.47715 20 0 15.5228 0 10Z" fill="white"/>
<path fill-rule="evenodd" clip-rule="evenodd" d="M12.2933 7.29325L9.00025 10.5863L7.70725 9.29325C7.31625 8.90225 6.68425 8.90225 6.29325 9.29325C5.90225 9.68425 5.90225 10.3163 6.29325 10.7073L8.29325 12.7073C8.48825 12.9023 8.74425 13.0002 9.00025 13.0002C9.25625 13.0002 9.51225 12.9023 9.70725 12.7073L13.7073 8.70725C14.0983 8.31625 14.0983 7.68425 13.7073 7.29325C13.3163 6.90225 12.6842 6.90225 12.2933 7.29325Z" fill="#00A653"/>
</svg>
