<svg width="24" height="24" viewBox="0 0 24 24" fill="none" xmlns="http://www.w3.org/2000/svg">
<path fill-rule="evenodd" clip-rule="evenodd" d="M5.70711 4.29289C5.31658 3.90237 4.68342 3.90237 4.29289 4.29289C3.90237 4.68342 3.90237 5.31658 4.29289 5.70711L5.57657 6.99078C3.75092 8.31946 2.72549 9.98569 2.26214 10.9048C1.91262 11.598 1.91262 12.402 2.26214 13.0952C3.11401 14.7849 5.86565 19 11.997 19C13.8316 19 15.3642 18.6226 16.6342 18.0484L18.2929 19.7071C18.6834 20.0976 19.3166 20.0976 19.7071 19.7071C20.0976 19.3166 20.0976 18.6834 19.7071 18.2929L18.4221 17.0079L18.4231 17.0073L16.9856 15.5698L16.9846 15.5704L14.7056 13.2914L14.7061 13.2903L13.4135 11.9977L13.4118 11.9976L11.9994 10.5851L11.9993 10.5835L10.7067 9.29089L10.7056 9.29139L8.90672 7.4925L8.90789 7.4921L7.36547 5.94968L7.36438 5.95017L5.70711 4.29289ZM7.01404 8.42826C5.36368 9.52872 4.4565 10.9949 4.04801 11.8051C3.984 11.9321 3.984 12.0679 4.04801 12.1949C4.75874 13.6046 6.97912 17 11.997 17C13.1776 17 14.2037 16.812 15.092 16.5062L13.2924 14.7067C12.9003 14.8947 12.4609 15 11.997 15C10.3401 15 8.99698 13.6569 8.99698 12C8.99698 11.536 9.1023 11.0967 9.29033 10.7045L7.01404 8.42826Z" fill="#FF14A1"/>
<path d="M19.9543 12.196C19.6941 12.71 19.2334 13.4866 18.5106 14.2664L19.9238 15.6796C20.841 14.7019 21.4209 13.727 21.7387 13.0993C22.0908 12.4038 22.0908 11.5962 21.7387 10.9007C20.8826 9.20969 18.1243 5 11.997 5C11.092 5 10.2606 5.09184 9.49805 5.25383L11.2688 7.02454C11.5047 7.0084 11.7474 7 11.997 7C17.0126 7 19.2397 10.3923 19.9543 11.804C20.0189 11.9317 20.0189 12.0683 19.9543 12.196Z" fill="#FF14A1"/>
</svg>
